<?xml version="1.0" standalone="no"?>
<!DOCTYPE svg PUBLIC "-//W3C//DTD SVG 20010904//EN"
 "http://www.w3.org/TR/2001/REC-SVG-20010904/DTD/svg10.dtd">
<svg version="1.0" xmlns="http://www.w3.org/2000/svg"
 width="520.000000pt" height="520.000000pt" viewBox="0 0 520.000000 520.000000"
 preserveAspectRatio="xMidYMid meet">
<metadata>
Created by potrace 1.11, written by Peter Selinger 2001-2013
</metadata>
<g transform="translate(0.000000,520.000000) scale(0.100000,-0.100000)"
fill="#000000" stroke="none">
<path d="M0 2600 l0 -2600 2600 0 2600 0 0 2600 0 2600 -2600 0 -2600 0 0
-2600z m3476 729 c152 -57 204 -169 204 -444 0 -269 -50 -386 -192 -451 -52
-23 -80 -29 -160 -32 -175 -8 -286 46 -348 167 -43 87 -53 156 -48 353 4 150
8 181 28 232 41 107 125 175 243 196 77 13 207 3 273 -21z m714 14 c0 -5 -22
-82 -48 -173 -27 -91 -136 -465 -243 -832 l-194 -668 -122 0 c-68 0 -123 4
-123 8 0 5 45 163 101 353 55 189 111 380 124 424 190 652 258 881 262 888 2
4 58 7 124 7 65 0 119 -3 119 -7z m-1836 -339 c149 -39 263 -132 335 -272 12
-23 34 -86 49 -140 l27 -97 0 -610 c0 -660 0 -659 -56 -805 -60 -157 -173
-267 -334 -324 -75 -27 -290 -34 -375 -12 -233 59 -376 220 -425 477 -22 118
-22 1199 0 1315 52 275 217 445 466 483 81 12 236 5 313 -15z m-1134 -1124 l0
-1120 -225 0 -225 0 0 849 c0 467 -2 856 -5 864 -5 11 -27 8 -128 -20 -67 -19
-137 -41 -156 -49 -18 -8 -37 -14 -42 -14 -6 0 -8 78 -7 181 l3 180 91 38
c141 60 245 117 299 165 l50 45 173 1 172 0 0 -1120z m3270 725 c168 -45 234
-175 234 -460 -1 -280 -68 -412 -232 -462 -75 -23 -218 -23 -293 0 -114 34
-194 141 -220 290 -18 111 -7 356 20 431 39 111 97 168 204 201 57 18 219 18
287 0z"/>
<path d="M3252 3092 c-27 -27 -36 -101 -30 -255 5 -158 15 -181 81 -185 47 -3
48 -2 63 34 31 75 28 374 -4 406 -5 5 -28 12 -50 15 -31 4 -44 1 -60 -15z"/>
<path d="M2111 2617 c-26 -9 -41 -24 -60 -62 l-26 -49 0 -621 0 -620 23 -51
c27 -59 63 -84 122 -84 34 0 48 6 75 33 60 60 60 63 60 717 0 640 -1 647 -52
707 -33 38 -88 50 -142 30z"/>
<path d="M4283 2343 c-15 -23 -18 -50 -17 -193 0 -103 4 -175 12 -193 23 -55
96 -61 129 -11 36 55 28 392 -10 416 -7 4 -31 8 -54 8 -35 0 -46 -5 -60 -27z"/>
</g>
</svg>
