<?xml version="1.0" standalone="no"?>
<!DOCTYPE svg PUBLIC "-//W3C//DTD SVG 20010904//EN"
 "http://www.w3.org/TR/2001/REC-SVG-20010904/DTD/svg10.dtd">
<svg version="1.0" xmlns="http://www.w3.org/2000/svg"
 width="1024.000000pt" height="1024.000000pt" viewBox="0 0 1024.000000 1024.000000"
 preserveAspectRatio="xMidYMid meet">
<metadata>
Created by potrace 1.11, written by Peter Selinger 2001-2013
</metadata>
<g transform="translate(0.000000,1024.000000) scale(0.100000,-0.100000)"
fill="#000000" stroke="none">
<path d="M0 5120 l0 -5120 5120 0 5120 0 0 5120 0 5120 -5120 0 -5120 0 0
-5120z m3450 2375 l975 -975 -791 0 -791 0 -7 -61 c-3 -34 -6 -1110 -6 -2390
l0 -2329 -360 0 -360 0 0 2390 0 2390 -797 0 -798 0 975 975 c536 536 977 975
980 975 3 0 444 -439 980 -975z m4620 -1625 c214 -34 407 -99 554 -187 350
-210 576 -541 663 -968 14 -71 18 -136 18 -310 0 -193 -3 -233 -24 -325 -50
-229 -130 -417 -242 -575 -67 -93 -193 -225 -266 -278 l-43 -31 23 -25 c13
-14 178 -195 367 -401 l343 -375 -194 -3 c-247 -4 -387 10 -455 43 -57 28
-131 101 -354 350 -84 94 -158 176 -165 184 -11 11 -30 10 -122 -9 -140 -28
-374 -37 -520 -21 -525 61 -946 366 -1145 831 -190 444 -162 1011 71 1415 134
234 319 410 558 533 153 78 275 117 458 147 98 16 386 19 475 5z m-3170 -35
c210 -35 341 -77 498 -160 384 -204 640 -581 702 -1035 15 -106 15 -362 0
-467 -74 -545 -412 -957 -925 -1131 -217 -73 -330 -82 -1034 -82 l-591 0 0
1445 0 1445 633 0 c498 0 650 -3 717 -15z"/>
<path d="M7640 5405 c-243 -50 -441 -186 -556 -381 -194 -332 -204 -851 -22
-1194 122 -231 315 -367 598 -425 115 -23 330 -17 445 14 309 82 519 296 609
621 88 316 48 714 -97 970 -118 210 -329 355 -581 399 -81 15 -317 12 -396 -4z"/>
<path d="M4090 4405 l0 -1015 334 0 c360 0 418 6 567 55 213 71 405 258 489
476 60 156 72 226 77 444 4 159 2 220 -11 290 -75 411 -311 669 -681 746 -78
16 -137 19 -432 19 l-343 0 0 -1015z"/>
</g>
</svg>
